{"title":"Red.Cliff.aka.Chi.bi.2008.DVDRiP.XviD.OPTIONAL-NORDIC_SUB-Zen_Bu","uid":5907712,"size":1491908379,"categoryP":"video","categoryS":"movies","magnet":"?xt=urn:btih:0687daf7d7a1bf85dbc606e6e3472f7d8168f744&amp;dn=Red.Cliff.aka.Chi.bi.2008.DVDRiP.XviD.OPTIONAL-NORDIC_SUB-Zen_Bu&amp;tr=udp%3A%2F%2Ftracker.openbittorrent.com%3A80&amp;tr=udp%3A%2F%2Fopen.demonii.com%3A1337&amp;tr=udp%3A%2F%2Ftracker.coppersurfer.tk%3A6969&amp;tr=udp%3A%2F%2Fexodus.desync.com%3A6969","seeders":1,"leechers":0,"uploader":"Zen_Bud","files":-1,"time":1287939289,"description":"* Red.Cliff.aka.Chi.bi.2008.DVDRiP.XviD.OPTIONAL-NORDIC_SUB-Zen_Bud *\n\nFormat                           : AVI\n\nFile size                        : 1.38 GiB\nDuration                         : 2h 21mn\nOverall bit rate                 : 1 389 Kbps\n\nVideo\n\nFormat                           : MPEG-4 Visual\nCodec ID/Hint                    : XviD\nDuration                         : 2h 21mn\nBit rate                         : 1 248 Kbps\nWidth                            : 720 pixels\nHeight                           : 434 pixels\nDisplay aspect ratio             : 2.35:1\nStream size                      : 1.24 GiB (90%)\nWriting library                  : XviD 1.1.2 (UTC 2006-11-01)\n\nAudio\n\nFormat                           : MPEG Audio\nCodec ID/Hint                    : MP3\nDuration                         : 2h 21mn\nBit rate                         : 128 Kbps\nChannel(s)                       : 2 channels\nSampling rate                    : 48.0 KHz\nStream size                      : 130 MiB (9%)\nWriting library                  : LAME3.98\nLanguage                         : Chinese \n\nText #1\nLanguage                         : Swedish\n\nText #2\nLanguage                         : Danish\n\nText #3\nLanguage                         : Norwegian\n\nText #4\nLanguage                         : Finnish\n\n &lt;a href=&quot;\nhttp://en.wikipedia.org/wiki/Red_Cliff_%28film%29&quot; rel=&quot;nofollow&quot; target=&quot;_NEW&quot;&gt;\nhttp://en.wikipedia.org/wiki/Red_Cliff_%28film%29&lt;/a&gt;\n","torrent":{"xt":"urn:btih:0687daf7d7a1bf85dbc606e6e3472f7d8168f744","amp;dn":"Red.Cliff.aka.Chi.bi.2008.DVDRiP.XviD.OPTIONAL-NORDIC_SUB-Zen_Bu","amp;tr":["udp%3A%2F%2Ftracker.openbittorrent.com%3A80","udp%3A%2F%2Fopen.demonii.com%3A1337","udp%3A%2F%2Ftracker.coppersurfer.tk%3A6969","udp%3A%2F%2Fexodus.desync.com%3A6969"],"infoHash":"0687daf7d7a1bf85dbc606e6e3472f7d8168f744","infoHashBuffer":{"type":"Buffer","data":[6,135,218,247,215,161,191,133,219,198,6,230,227,71,47,125,129,104,247,68]},"announce":[],"urlList":[]}}